<?xml version="1.0" encoding="iso-8859-1"?>
<!-- Generator: Adobe Illustrator 17.1.0, SVG Export Plug-In . SVG Version: 6.00 Build 0)  -->
<!DOCTYPE svg PUBLIC "-//W3C//DTD SVG 1.1//EN" "http://www.w3.org/Graphics/SVG/1.1/DTD/svg11.dtd">
<svg version="1.1" id="Capa_1" xmlns="http://www.w3.org/2000/svg" xmlns:xlink="http://www.w3.org/1999/xlink" x="0px" y="0px"
	 viewBox="0 0 295.647 295.647" style="enable-background:new 0 0 295.647 295.647;" xml:space="preserve">
<g>
	<path d="M291.847,232.61L184.441,46.589c-8.903-15.422-23.474-15.415-32.377,0.007l-45.939,79.572l36.394,62.528
		c2.8,4.81,1.17,10.979-3.64,13.779c-1.595,0.928-3.339,1.37-5.06,1.37c-3.471,0-6.848-1.794-8.719-5.009l-37.336-64.145
		c-8.939-11.315-21.642-9.994-29.702,3.966L3.8,232.611c-8.903,15.421-1.619,28.01,16.188,28.01h40.855h67.666h147.15
		C293.466,260.621,300.75,248.032,291.847,232.61z M96.319,204.621H52.179c-4.749,0-6.691-3.424-4.317-7.537l22.072-38.259
		c2.374-4.112,6.259-4.128,8.633-0.015l22.07,38.28C103.011,201.204,101.068,204.621,96.319,204.621z M199.351,126.621h-62.195
		c-4.749,0-6.691-3.271-4.316-7.385l31.096-53.812c2.375-4.112,6.26-4.09,8.635,0.022l31.098,53.778
		C206.042,123.337,204.1,126.621,199.351,126.621z"/>
	<path d="M84.987,90.416c4.351-3.27,7.177-8.457,7.177-14.316c0-9.896-8.02-17.92-17.914-17.92c-9.895,0-17.92,8.024-17.92,17.92
		c0,7.905,5.132,14.604,12.24,16.981c1.787,0.598,3.692,0.935,5.68,0.935C78.283,94.016,81.993,92.666,84.987,90.416z"/>
</g>
<g>
</g>
<g>
</g>
<g>
</g>
<g>
</g>
<g>
</g>
<g>
</g>
<g>
</g>
<g>
</g>
<g>
</g>
<g>
</g>
<g>
</g>
<g>
</g>
<g>
</g>
<g>
</g>
<g>
</g>
</svg>
