<svg height="620pt" viewBox="-19 -151 620.00121 620" width="620pt" xmlns="http://www.w3.org/2000/svg"><path d="m290.625 211.648438c-21.691406.039062-42.503906-8.566407-57.828125-23.914063-27.730469-27.777344-31.84375-71.320313-9.816406-103.800781l60.414062-88.886719c1.628907-2.394531 4.335938-3.828125 7.230469-3.828125 2.890625 0 5.597656 1.433594 7.226562 3.828125l60.414063 88.886719c17.035156 25.046875 18.820313 57.464844 4.648437 84.230468-14.179687 26.769532-42 43.503907-72.289062 43.484376zm0 0"/><path d="m290.625 269.300781c-44.578125 0-86.578125-4.371093-118.277344-12.289062-36.324218-9.078125-54.734375-21.703125-54.734375-37.519531 0-24.25 43.691407-36.648438 80.347657-42.78125 4.757812-.796876 9.265624 2.417968 10.0625 7.179687.792968 4.765625-2.421876 9.265625-7.179688 10.0625-54.589844 9.128906-65.75 22.464844-65.75 25.539063 0 2.644531 7.613281 12.089843 41.492188 20.558593 30.351562 7.589844 70.851562 11.769531 114.039062 11.769531 43.183594 0 83.683594-4.179687 114.035156-11.769531 33.871094-8.46875 41.492188-17.914062 41.492188-20.558593 0-4.121094-13.421875-15.285157-54.921875-23.558594-3.066407-.601563-5.578125-2.800782-6.589844-5.761719-1.003906-2.960937-.347656-6.238281 1.714844-8.582031 2.066406-2.351563 5.226562-3.421875 8.296875-2.800782 45.773437 9.125 68.980468 22.816407 68.980468 40.707032 0 15.820312-18.410156 28.441406-54.734374 37.519531-31.699219 7.921875-73.699219 12.285156-118.273438 12.285156zm0 0"/><path d="m290.625 310.179688c-76.121094 0-147.800781-8.925782-201.835938-25.136719-58.085937-17.429688-88.789062-40.996094-88.789062-68.171875 0-48.125 96.054688-76.671875 185.945312-87.339844 4.742188-.472656 8.992188 2.9375 9.550782 7.667969.5625 4.726562-2.769532 9.035156-7.492188 9.6875-51.136718 6.066406-94.644531 16.414062-125.816406 29.921875-28.828125 12.488281-44.703125 26.71875-44.703125 40.058594 0 35.863281 112.175781 75.828124 273.144531 75.828124 160.960938 0 273.140625-39.957031 273.140625-75.828124 0-13.269532-15.734375-27.441407-44.300781-39.886719-30.90625-13.453125-74.082031-23.808594-124.863281-29.933594-4.792969-.578125-8.207031-4.933594-7.632813-9.726563.582032-4.789062 4.933594-8.210937 9.726563-7.628906 89.214843 10.75 184.550781 39.296875 184.550781 87.175782 0 27.167968-30.703125 50.742187-88.789062 68.167968-54.039063 16.21875-125.71875 25.144532-201.835938 25.144532zm0 0"/></svg>