<svg id="Capa_1" enable-background="new 0 0 512 512" height="512" viewBox="0 0 512 512" width="512" xmlns="http://www.w3.org/2000/svg"><g><path d="m305.593 442.24-49.593-147.862-49.601 147.885s-2.897 11.198-2.897 17.239c.001 28.994 23.504 52.498 52.498 52.498s52.497-23.504 52.497-52.498c0-6.049-2.904-17.262-2.904-17.262z"/><g><path d="m119.028 455.242-40.35-120.303-40.355 120.322s-2.357 9.111-2.357 14.026c0 23.59 19.123 42.713 42.713 42.713s42.713-19.123 42.713-42.713c-.001-4.922-2.364-14.045-2.364-14.045z"/><path d="m473.671 455.242-40.35-120.303-40.356 120.322s-2.357 9.111-2.357 14.026c0 23.59 19.123 42.713 42.713 42.713s42.713-19.123 42.713-42.713c0-4.922-2.363-14.045-2.363-14.045z"/></g><path d="m305.593 147.862-49.593-147.862-49.601 147.885s-2.897 11.198-2.897 17.239c0 28.994 23.504 52.498 52.497 52.498s52.497-23.504 52.497-52.498c.001-6.049-2.903-17.262-2.903-17.262z"/><g><path d="m119.028 160.864-40.35-120.303-40.355 120.322s-2.357 9.111-2.357 14.026c0 23.59 19.123 42.713 42.713 42.713s42.713-19.123 42.713-42.713c-.001-4.922-2.364-14.045-2.364-14.045z"/><path d="m473.671 160.864-40.35-120.303-40.356 120.322s-2.357 9.111-2.357 14.026c0 23.59 19.123 42.713 42.713 42.713s42.713-19.123 42.713-42.713c0-4.922-2.363-14.045-2.363-14.045z"/></g></g></svg>