<?xml version="1.0" encoding="iso-8859-1"?>
<!-- Generator: Adobe Illustrator 19.0.0, SVG Export Plug-In . SVG Version: 6.00 Build 0)  -->
<svg version="1.1" id="Layer_1" xmlns="http://www.w3.org/2000/svg" xmlns:xlink="http://www.w3.org/1999/xlink" x="0px" y="0px"
	 viewBox="0 0 489 489" style="enable-background:new 0 0 489 489;" xml:space="preserve">
<g transform="translate(0 -540.36)">
	<g>
		<g>
			<path d="M355.3,954.21c-2.5-4.9-8.5-6.9-13.4-4.4l-15.6,7.9v-19.2c0-5.5-4.5-10-10-10s-10,4.5-10,10v19.2l-15.6-7.9
				c-4.9-2.5-10.9-0.5-13.4,4.4s-0.5,10.9,4.4,13.4l12.5,6.4l-12.5,6.4c-4.9,2.5-6.9,8.5-4.4,13.4c1.8,3.5,5.3,5.5,8.9,5.5
				c1.5,0,3.1-0.3,4.5-1.1l15.6-7.9v19.2c0,5.5,4.5,10,10,10s10-4.5,10-10v-19.2l15.6,7.9c1.5,0.7,3,1.1,4.5,1.1
				c3.6,0,7.2-2,8.9-5.5c2.5-4.9,0.5-10.9-4.4-13.4l-12.5-6.4l12.5-6.4C355.8,965.11,357.8,959.11,355.3,954.21z"/>
			<path d="M202.9,954.21c-2.5-4.9-8.5-6.9-13.4-4.4l-15.6,7.9v-19.2c0-5.5-4.5-10-10-10s-10,4.5-10,10v19.2l-15.6-7.9
				c-4.9-2.5-10.9-0.5-13.4,4.4s-0.5,10.9,4.4,13.4l12.5,6.4l-12.5,6.4c-4.9,2.5-6.9,8.5-4.4,13.4c1.8,3.5,5.3,5.5,8.9,5.5
				c1.5,0,3.1-0.3,4.5-1.1l15.6-7.9v19.2c0,5.5,4.5,10,10,10s10-4.5,10-10v-19.2l15.6,7.9c1.5,0.7,3,1.1,4.5,1.1
				c3.6,0,7.2-2,8.9-5.5c2.4-4.9,0.5-10.9-4.4-13.4l-12.5-6.4l12.5-6.4C203.4,965.11,205.4,959.11,202.9,954.21z"/>
			<path d="M108.5,910.31c-4.4-3.3-10.7-2.4-14,2L64,952.81c-3.3,4.4-2.4,10.7,2,14c1.8,1.3,3.9,2,6,2c3,0,6-1.4,8-4l30.5-40.5
				C113.8,919.91,112.9,913.61,108.5,910.31z"/>
			<path d="M271.6,910.31c-4.4-3.3-10.7-2.4-14,2l-30.5,40.5c-3.3,4.4-2.4,10.7,2,14c1.8,1.3,3.9,2,6,2c3,0,6-1.4,8-4l30.5-40.5
				C276.9,919.91,276,913.61,271.6,910.31z"/>
			<path d="M424,910.31c-4.4-3.3-10.7-2.4-14,2l-30.5,40.5c-3.3,4.4-2.4,10.7,2,14c1.8,1.3,3.9,2,6,2c3.1,0,6.1-1.4,8-4l30.5-40.5
				C429.3,919.91,428.4,913.61,424,910.31z"/>
			<path d="M367,623.31c-10.3,0-20.5,1.3-30.2,3.8c-8.4-20.8-22.7-39.4-40.9-52.9c-21.2-15.7-46.3-24-72.5-24
				c-44.5,0-85.6,25.2-107.1,64.9c-8.1-2.4-16.7-3.7-24.7-3.7c-50.5,0-91.6,41.2-91.6,91.8s41.1,91.8,91.6,91.8h54
				c8.9,41.3,45.6,72.4,89.5,72.4H367c67.3,0,122-54.9,122-122.3C489,677.81,434.3,623.31,367,623.31z M143.5,774.51h-52
				c-39.4,0.2-71.5-32-71.5-71.6v0c0-39.6,32.1-71.8,71.6-71.8c8.3,0,17.7,1.9,25.9,5.3c5,2.1,10.7-0.2,13-5.1
				c16.8-37.3,53.4-61.4,93-61.4c41.1,0,78.8,25.7,94.4,63.4c-24.7,10.8-45.4,29.6-58.3,54c-7.8-2.1-15.9-3.1-24.5-3.1
				c-24.4,0-47.4,9.4-64.7,26.5C153.2,727.71,143.7,750.31,143.5,774.51z M367,847.11L367,847.11l-131.9,0
				c-39.5,0-71.6-32.2-71.6-71.8c0-39.1,32.1-71,71.6-71c9.4,0,18,1.5,26.1,4.7c5,1.9,10.6-0.4,12.8-5.4
				c15.9-36.7,52.4-60.4,93-60.4c56.3,0,102,45.6,102,101.6C469,801.21,423.2,847.11,367,847.11z"/>
		</g>
	</g>
</g>
<g>
</g>
<g>
</g>
<g>
</g>
<g>
</g>
<g>
</g>
<g>
</g>
<g>
</g>
<g>
</g>
<g>
</g>
<g>
</g>
<g>
</g>
<g>
</g>
<g>
</g>
<g>
</g>
<g>
</g>
</svg>
