<?xml version="1.0" encoding="iso-8859-1"?>
<!-- Generator: Adobe Illustrator 16.0.0, SVG Export Plug-In . SVG Version: 6.00 Build 0)  -->
<!DOCTYPE svg PUBLIC "-//W3C//DTD SVG 1.1//EN" "http://www.w3.org/Graphics/SVG/1.1/DTD/svg11.dtd">
<svg version="1.1" id="Capa_1" xmlns="http://www.w3.org/2000/svg" xmlns:xlink="http://www.w3.org/1999/xlink" x="0px" y="0px"
	 width="108.336px" height="108.336px" viewBox="0 0 108.336 108.336" style="enable-background:new 0 0 108.336 108.336;"
	 xml:space="preserve">
<g>
	<path d="M108.266,51.385C106.812,22.805,83.104,0,54.168,0C27.1,0,4.605,19.957,0.625,45.93C0.214,48.617,0,51.368,0,54.168
		s0.214,5.552,0.625,8.238c3.98,25.973,26.475,45.93,53.543,45.93c28.936,0,52.645-22.804,54.098-51.385
		c0.047-0.922,0.07-1.85,0.07-2.783C108.336,53.235,108.312,52.307,108.266,51.385z M9.525,30.08
		c-0.352,0.574-0.543,1.209-0.828,1.807c-0.293,0.064-0.366,0.257-0.374,0.539c-0.007,0.266-0.124,0.395-0.321,0.373
		c0.222,0.248,0.275,0.618,0.494,0.916c0.297-0.351,0.658-0.604,0.855-1.002C3.292,41.918,3.962,64.928,3.83,63.971
		c-0.015-0.107-0.104-0.205-0.222-0.169c-0.23,0.074-0.129,0.257-0.123,0.421c0.027,0.754,0.158,1.5,0.219,2.25
		c-0.129-0.199-0.26-0.396-0.393-0.591c-0.768-4.006-1.23-8.044-1.032-12.135c0.185-3.828,0.753-7.597,1.698-11.327
		c0.592-2.336,1.332-4.596,2.283-6.798c0.001,0,0.001,0.001,0.001,0.001c0.11-0.453,0.28-0.885,0.503-1.295
		c0.369-0.43,0.479-0.985,0.713-1.48c0.783-1.65,1.672-3.237,2.637-4.775c0.35-0.105,0.689-0.257,1.004-0.488
		C10.582,28.412,10.041,29.238,9.525,30.08z"/>
</g>
<g>
</g>
<g>
</g>
<g>
</g>
<g>
</g>
<g>
</g>
<g>
</g>
<g>
</g>
<g>
</g>
<g>
</g>
<g>
</g>
<g>
</g>
<g>
</g>
<g>
</g>
<g>
</g>
<g>
</g>
</svg>
