<?xml version="1.0" encoding="iso-8859-1"?>
<!-- Generator: Adobe Illustrator 16.0.0, SVG Export Plug-In . SVG Version: 6.00 Build 0)  -->
<!DOCTYPE svg PUBLIC "-//W3C//DTD SVG 1.1//EN" "http://www.w3.org/Graphics/SVG/1.1/DTD/svg11.dtd">
<svg version="1.1" id="Capa_1" xmlns="http://www.w3.org/2000/svg" xmlns:xlink="http://www.w3.org/1999/xlink" x="0px" y="0px"
	 width="107.112px" height="107.112px" viewBox="0 0 107.112 107.112" style="enable-background:new 0 0 107.112 107.112;"
	 xml:space="preserve">
<g>
	<path d="M12.958,29.992c0.482,0.994,0.389,1.918-0.269,2.793c-0.137,0.183-0.233,0.352-0.493,0.239
		c-0.003-0.003-0.006-0.007-0.009-0.011c-0.136,0.464-0.253,0.92-0.742,1.217c-0.321,0.195-0.33,0.86-0.95,0.643
		c-0.016,0.08-0.052,0.162-0.044,0.24c0.016,0.181,0.104,0.533,0.184,0.462c0.408-0.354,0.688,0.62,1.052,0.068
		c0.171-0.259,0.444-0.291,0.708-0.355c0.704-0.173,0.772-0.341,0.39-0.97c-0.093-0.152-0.182-0.414,0.024-0.4
		c0.281,0.018,0.46-0.076,0.603-0.231c0.742-2.249,1.624-4.429,2.638-6.542c-0.643,0.721-1.369,1.37-1.583,2.404
		C14.354,30.099,13.842,30.208,12.958,29.992z"/>
	<path d="M16.192,26.987c0.413-0.483,0.795-0.997,0.946-1.633c-0.029-0.072-0.057-0.13-0.084-0.191
		c-0.348,0.653-0.683,1.313-1.003,1.98C16.097,27.091,16.146,27.04,16.192,26.987z"/>
	<path d="M53.556,0C24.025,0,0,24.025,0,53.557c0,29.531,24.025,53.556,53.556,53.556c29.53,0,53.556-24.024,53.556-53.556
		C107.112,24.025,83.086,0,53.556,0z M12.111,80.109c0.366,0.035,0.508,0.324,0.583,0.629c-0.009,0.219-0.046,0.469-0.275,0.436
		c-0.355-0.053-0.433-0.416-0.535-0.699C11.829,80.322,11.891,80.088,12.111,80.109z M16.49,83.027
		c-0.337,0.283-0.674,0.09-0.967-0.133c-1.159-0.879-1.61-2.037-1.342-3.439c1.317,0.355,1.956,1.385,2.466,2.535
		C16.813,82.367,16.819,82.751,16.49,83.027z M53.556,106.362c-2.883,0-5.71-0.241-8.469-0.688
		c-8.287-1.945-15.614-6.807-21.979-14.584c-2.829-3.457-5.176-7.156-7.062-11.088c-0.095-0.074-0.173-0.17-0.199-0.304
		c-0.186-0.957-1.049-1.043-1.694-1.338c-0.738-0.341-1.025-0.738-0.788-1.544c-0.291-0.553-0.528-1.129-0.734-1.721
		c-0.117-0.334-0.304-0.645-0.652-0.807c-0.562-0.131-0.914-0.502-1.11-1.02c-0.225-0.59-0.791-0.711-1.267-0.947
		c-0.183-0.092-0.336,0-0.292,0.244c0.022,0.125,0.071,0.244,0.088,0.367c0.026,0.188,0.053,0.418-0.189,0.467
		c-0.244,0.047-0.349-0.18-0.338-0.361c0.038-0.646-0.286-1.154-0.553-1.699c-0.162-0.33-0.339-0.443-0.684-0.35
		c-0.576,0.156-0.978-0.092-1.251-0.586c-0.235-0.426-0.485-0.832-0.937-1.072c-0.397-0.211-0.113-0.564-0.158-0.852
		c-0.002-0.082-0.005-0.164-0.008-0.245c-0.536-0.302-0.615-0.859-0.766-1.374c-0.087-0.299-0.157-0.604-0.234-0.905
		c-0.202-0.927-0.927-1.64-1.058-2.597c-0.015-0.108-0.104-0.206-0.221-0.17c-0.231,0.074-0.129,0.258-0.123,0.421
		c0.026,0.754,0.157,1.5,0.219,2.251c-0.129-0.199-0.26-0.396-0.393-0.592c-0.768-4.006-1.23-8.043-1.032-12.135
		c0.185-3.828,0.752-7.597,1.698-11.327c0.592-2.336,1.333-4.596,2.284-6.798l0,0c0.111-0.453,0.281-0.884,0.502-1.295
		c0.37-0.429,0.48-0.985,0.714-1.48c0.783-1.651,1.671-3.237,2.636-4.776c0.35-0.105,0.69-0.256,1.003-0.487
		c-0.537,0.828-1.078,1.653-1.593,2.496c-0.351,0.574-0.543,1.208-0.829,1.807c-0.292,0.064-0.366,0.256-0.374,0.539
		c-0.007,0.266-0.124,0.395-0.321,0.373c0.222,0.248,0.275,0.618,0.494,0.916c0.296-0.35,0.658-0.604,0.856-1.001
		c0.43-0.864,1.084-1.566,1.698-2.29c0.595-0.7,1.134-1.443,1.707-2.149c0.657-0.811,1.369-1.628,2.235-2.262
		c0.301,0.084,0.562-0.004,0.791-0.197c0.159-0.133,0.333-0.24,0.518-0.333c0.798-0.406,1.061-0.368,1.363,0.293
		c0.244-0.459,0.491-0.917,0.748-1.369c-0.085-0.017-0.181-0.035-0.261-0.051c-0.167-0.713,0.13-1.394,0.12-2.099
		c0.018-0.026,0.035-0.053,0.052-0.078c0.5,0.045,1.065-0.312,1.102-0.794c0.027-0.358,0.183-0.53,0.467-0.654
		c0.477-0.03,0.918-0.109,0.946-0.729c0.008-0.169,0.126-0.261,0.26-0.336c0.108-0.017,0.224,0,0.339,0.013
		c0.727-1.021,1.479-2.028,2.282-3.011c6.384-7.814,13.736-12.69,22.053-14.629c2.735-0.439,5.538-0.675,8.395-0.675
		c29.117,0,52.806,23.688,52.806,52.806C106.363,82.676,82.674,106.362,53.556,106.362z"/>
</g>
<g>
</g>
<g>
</g>
<g>
</g>
<g>
</g>
<g>
</g>
<g>
</g>
<g>
</g>
<g>
</g>
<g>
</g>
<g>
</g>
<g>
</g>
<g>
</g>
<g>
</g>
<g>
</g>
<g>
</g>
</svg>
