<svg height="512pt" viewBox="-30 0 512 512" width="512pt" xmlns="http://www.w3.org/2000/svg"><path d="m380.007812 360.03125 49.789063 49.632812 21.210937-21.148437-43.570312-43.4375 44.339844-44.203125-21.214844-21.144531-50.554688 50.394531-48.917968.003906c-.765625-2.332031-1.707032-4.601562-2.820313-6.785156l66.480469-66.273438h54.042969v-29.910156h-45.253907v-46.648437h-30v55.402343l-66.480468 66.277344c-2.46875-1.25-5.039063-2.292968-7.691406-3.097656l-11.367188 28.246094c-.902344-.136719-1.820312-.207032-2.746094-.207032-4.867187 0-9.445312 1.894532-12.886718 5.335938-3.441407 3.441406-5.335938 8.019531-5.335938 12.886719 0 4.867187 1.894531 9.441406 5.335938 12.882812.746093.746094 1.546874 1.414063 2.390624 2.011719l-11.175781 27.777344c2.148438 1.082031 4.371094 2 6.660157 2.742187l-.125 49.683594-50.554688 50.398437 21.210938 21.148438 44.328124-44.191406 43.570313 43.4375 21.214844-21.144532-49.773438-49.617187.125-49.703125c2.351563-.765625 4.636719-1.707031 6.839844-2.824219l67.257813 67.046875v56.199219h30v-47.4375h45.25v-29.90625h-54.039063l-67.269531-67.058594c1.113281-2.183593 2.050781-4.441406 2.8125-6.769531zm-81.875-1.792969c-3.441406 3.441407-8.015624 5.339844-12.882812 5.339844-3.777344 0-7.371094-1.15625-10.402344-3.277344l13.167969-32.9375c3.816406.578125 7.339844 2.328125 10.117187 5.109375 3.441407 3.441406 5.335938 8.015625 5.335938 12.882813.003906 4.867187-1.894531 9.441406-5.335938 12.882812zm0 0"/><path d="m162.449219 511.203125h30v-51.976563h-30.332031zm0 0"/><path d="m180.183594 429.164062 62.046875-62.003906c-1.117188-2.195312-2.058594-4.46875-2.820313-6.808594l-49.25-.023437-49.78125 49.785156-21.214844-21.210937 43.574219-43.574219-44.328125-44.328125 21.210938-21.214844 50.542968 50.542969 49.25.023437c.644532-1.980468 1.410157-3.917968 2.308594-5.792968l-67.511718-67.515625h-54.039063v-30h45.253906v-46.792969h30v55.582031l67.015625 67.015625c2.175782-1.171875 4.4375-2.167968 6.765625-2.988281l.121094-50.210937-49.769531-49.769532 21.210937-21.214844 58.886719 58.886719v11.820313l50.226562-50.070313-21.210937-21.148437-33.066406 32.964844c-43.070313-81.195313-133.449219-211.117188-133.449219-211.117188s-49.996094 65.949219-86.585938 125.332031c-50.144531 81.382813-75.570312 141.054688-75.570312 177.355469 0 74.335938 50.738281 137.070312 119.5 155.621094v-15.484375h.167969v-13.660157zm0 0"/></svg>