<svg id="Capa_1" enable-background="new 0 0 512 512" height="512" viewBox="0 0 512 512" width="512" xmlns="http://www.w3.org/2000/svg"><g><path d="m388.701 208.992 58.528-126.388 58.528 126.388c4.001 8.417 6.243 17.833 6.243 27.773 0 35.772-28.999 64.771-64.771 64.771s-64.771-28.999-64.771-64.771c0-9.94 2.242-19.356 6.243-27.773z"/><path d="m197.472 272.922 58.528-126.388 58.528 126.388c4.001 8.417 6.243 17.833 6.243 27.773 0 35.772-28.999 64.771-64.771 64.771s-64.771-28.999-64.771-64.771c0-9.94 2.242-19.356 6.243-27.773z"/><path d="m6.243 336.852 58.528-126.388 58.528 126.388c4.001 8.417 6.243 17.833 6.243 27.773 0 35.772-28.999 64.771-64.771 64.771s-64.771-28.999-64.771-64.771c0-9.94 2.242-19.355 6.243-27.773z"/></g></svg>