<?xml version="1.0" encoding="iso-8859-1"?>
<!-- Generator: Adobe Illustrator 19.0.0, SVG Export Plug-In . SVG Version: 6.00 Build 0)  -->
<svg version="1.1" id="Layer_1" xmlns="http://www.w3.org/2000/svg" xmlns:xlink="http://www.w3.org/1999/xlink" x="0px" y="0px"
	 viewBox="0 0 181.857 181.857" style="enable-background:new 0 0 181.857 181.857;" xml:space="preserve">
<g>
	<g>
		<g>
			<path d="M146.071,46.394c-1.882-25.887-24.295-46.392-51.577-46.392c-21.644,0-40.714,12.797-48.321,32.12
				c-0.531-0.019-1.064-0.028-1.6-0.028C19.995,32.094,0,52.089,0,76.667s19.995,44.573,44.573,44.573
				c0.467,0,0.931-0.007,1.396-0.021c0.127,0.014,0.256,0.021,0.387,0.021h99.843c0.258,0,0.512-0.03,0.757-0.085
				c19.619-1.313,34.901-17.61,34.901-37.356C181.856,63.708,165.951,47.263,146.071,46.394z M146.003,114.068
				c-0.127,0.005-0.254,0.019-0.378,0.04H46.888c-0.225-0.037-0.456-0.044-0.679-0.035c-0.542,0.025-1.088,0.035-1.637,0.035
				c-20.645,0-37.441-16.796-37.441-37.441c0-20.645,16.796-37.441,37.441-37.441c1.245,0,2.478,0.061,3.691,0.179
				c1.643,0.171,3.211-0.844,3.735-2.43C57.894,19.126,74.971,7.134,94.494,7.134c24.578,0,44.573,19.196,44.573,42.835
				c0,0.977,0.4,1.91,1.109,2.584c0.707,0.674,1.652,1.048,2.636,0.977c0.531-0.026,1.064-0.04,1.604-0.04
				c16.713,0,30.309,13.596,30.309,30.309C174.725,99.942,162.109,113.237,146.003,114.068z"/>
			<path d="M152.285,147.245c-1.393-1.393-3.649-1.393-5.042,0l-6.087,6.087h-2.746c-1.077-3.021-3.454-5.398-6.474-6.474v-2.746
				l6.087-6.087c1.393-1.393,1.393-3.649,0-5.042s-3.649-1.393-5.042,0l-4.61,4.61l-4.611-4.611c-1.393-1.393-3.649-1.393-5.042,0
				s-1.393,3.649,0,5.042l6.087,6.087v2.746c-3.021,1.077-5.398,3.454-6.474,6.474h-2.746l-6.087-6.087
				c-1.393-1.393-3.649-1.393-5.042,0c-1.393,1.393-1.393,3.649,0,5.042l4.61,4.61l-4.611,4.611c-1.393,1.393-1.393,3.649,0,5.042
				c0.697,0.696,1.609,1.044,2.521,1.044s1.825-0.348,2.521-1.045l6.087-6.087h2.747c1.077,3.021,3.453,5.397,6.474,6.474v2.747
				l-6.087,6.087c-1.393,1.393-1.393,3.649,0,5.042s3.649,1.393,5.042,0l4.61-4.611l4.611,4.611
				c0.696,0.696,1.609,1.044,2.521,1.044s1.825-0.348,2.521-1.045c1.393-1.393,1.393-3.649,0-5.042l-6.087-6.087v-2.746
				c3.021-1.077,5.398-3.454,6.474-6.474h2.746l6.087,6.087c0.697,0.696,1.609,1.045,2.521,1.045c0.912,0,1.825-0.348,2.521-1.045
				c1.393-1.393,1.393-3.649,0-5.042l-4.61-4.61l4.611-4.611C153.678,150.894,153.678,148.638,152.285,147.245z M128.369,160.463
				c-1.966,0-3.566-1.6-3.566-3.566c0-1.966,1.6-3.566,3.566-3.566s3.566,1.6,3.566,3.566
				C131.935,158.863,130.335,160.463,128.369,160.463z"/>
			<path d="M57.892,141.039c-1.71-0.987-3.888-0.4-4.872,1.306l-18.554,32.136c-0.984,1.706-0.4,3.886,1.306,4.872
				c0.562,0.324,1.175,0.477,1.779,0.477c1.233,0,2.43-0.639,3.092-1.783l18.553-32.136
				C60.182,144.205,59.599,142.025,57.892,141.039z"/>
			<path d="M79.287,141.039c-1.713-0.987-3.886-0.4-4.872,1.306l-18.553,32.136c-0.984,1.706-0.4,3.886,1.306,4.872
				c0.562,0.324,1.175,0.477,1.779,0.477c1.233,0,2.43-0.639,3.092-1.783l18.553-32.136
				C81.577,144.205,80.994,142.025,79.287,141.039z"/>
		</g>
	</g>
</g>
<g>
</g>
<g>
</g>
<g>
</g>
<g>
</g>
<g>
</g>
<g>
</g>
<g>
</g>
<g>
</g>
<g>
</g>
<g>
</g>
<g>
</g>
<g>
</g>
<g>
</g>
<g>
</g>
<g>
</g>
</svg>
