<?xml version='1.0' encoding='utf-8'?>
<!DOCTYPE svg PUBLIC '-//W3C//DTD SVG 1.1//EN' 'http://www.w3.org/Graphics/SVG/1.1/DTD/svg11.dtd'>
<svg version="1.1" xmlns="http://www.w3.org/2000/svg" viewBox="0 0 512 512" xmlns:xlink="http://www.w3.org/1999/xlink" enable-background="new 0 0 512 512">
  <g>
    <g>
      <path d="m152,114.2c-14.4,16.6-141,164.2-141,239.6 0,81.2 70.2,147.2 156.4,147.2 86.2,0 156.4-66 156.4-147.2 0-75.5-126.6-223.1-141-239.6-7.7-8.9-23-8.9-30.8-1.42109e-14zm15.4,345.9c-63.7,0-115.6-47.7-115.6-106.3 0-41 65.6-134.1 115.6-194.6 50,60.5 115.6,153.6 115.6,194.6 0,58.7-51.9,106.3-115.6,106.3z"/>
      <path d="m412.7,17.7c-7.8-8.9-23-8.9-30.8,0-14.7,16.9-88.3,103.8-88.3,151.9 0,54 46.5,98 103.6,98 57.2,0 103.6-44 103.6-98 0.2-48.1-73.3-135-88.1-151.9zm-15.3,209c-34.6,0-62.8-25.6-62.8-57.1 0-20.6 33-69.4 62.8-106.6 29.8,37.1 62.8,86 62.8,106.6 0,31.4-28.2,57.1-62.8,57.1z"/>
    </g>
  </g>
</svg>
