<svg id="Layer_1" enable-background="new 0 0 483.038 483.038" height="512" viewBox="0 0 483.038 483.038" width="512" xmlns="http://www.w3.org/2000/svg"><path d="m387.677 69.078v-.16c.012.037.015.113 0 .16zm.58 187.4c-30.043 48.151-66.267 64.728-75.91 110.81-5.89 28.12-.3 59.23 16.6 92.47 6.323 12.427-5.242 26.413-18.56 22.66-71.66-20.011-131.446-60.366-138.406-134.393-1.065-11.322 9.973-19.869 20.668-16.003 17.16 6.203 40.88 8.391 63.472 2.624 8.485-2.166 14.098-10.578 12.183-19.123-1.992-8.886-10.932-14.281-19.663-11.996-11.85 3.097-24.668 3.575-39.738.064-4.857-1.132-13.762-4.746-25.902-11.049-5.469-2.84-8.719-8.667-8.277-14.813.873-12.157 1.317-24.535.325-37.274-.817-10.478 8.826-19.081 19.836-16.06 49.564 13.604 99.283 10.337 145.977-13.087 8.16-4.093 11.295-14.219 6.711-22.253-4.221-7.396-13.705-10.023-21.323-6.217-57.115 28.529-121.147 19.919-171.117-9.879-1.941-1.157-3.549-2.786-4.789-4.675-14.481-22.062-35.015-41.777-61.356-58.847-15.249-9.917-29.3-21.769-29.3-40.43 0-91.465 356.581-92.13 359.98-1.26 10.059 75.701-.501 139.191-31.411 188.731zm-37.52-209.72c-60.945-19.694-161.199-19.68-222.1 0-30.68 9.91-36.95 20.07-36.95 22.25s6.27 12.34 36.95 22.25c52.107 16.838 128.065 18.305 183.07 9.2 7.51-1.25 8.15-11.89.83-14-20.678-5.177-30.63-7.672-63.24-8.45-22.14-.54-44.52 1.38-66.53 5.7-8.67 1.7-17.08-3.95-18.78-12.62s3.95-17.08 12.62-18.78c45.083-8.857 100.126-9.376 144.48 3.32 17.26 4.94 35.18 12.23 52.28 21.77 2.51 1.4 5.62 1.14 7.89-.63 3.12-2.43 6.42-5.57 6.42-7.69.884-2.212-7.78-12.902-36.94-22.32z"/></svg>