<?xml version="1.0" encoding="iso-8859-1"?>
<!-- Generator: Adobe Illustrator 19.0.0, SVG Export Plug-In . SVG Version: 6.00 Build 0)  -->
<svg version="1.1" id="Capa_1" xmlns="http://www.w3.org/2000/svg" xmlns:xlink="http://www.w3.org/1999/xlink" x="0px" y="0px"
	 viewBox="0 0 512 512" style="enable-background:new 0 0 512 512;" xml:space="preserve">
<g>
	<g>
		<path d="M301.184,342.88c-3.008-4.32-7.936-6.88-13.184-6.88h-32v-80c0-7.744-5.536-14.368-13.12-15.744
			c-7.552-1.28-15.136,2.88-17.856,10.112l-48,128c-1.856,4.896-1.152,10.432,1.824,14.752c3.008,4.32,7.904,6.88,13.152,6.88h32v80
			c0,7.744,5.536,14.368,13.152,15.744c0.96,0.16,1.92,0.256,2.88,0.256c6.56,0,12.608-4.064,14.976-10.368l48-128
			C304.864,352.736,304.16,347.2,301.184,342.88z"/>
	</g>
</g>
<g>
	<g>
		<path d="M416,144c-1.024,0-2.048,0-3.136,0.032C397.952,70.016,333.088,16,256,16c-64.032,0-121.504,38.112-146.688,96.032
			C48.8,113.472,0,163.136,0,224c0,61.76,50.24,112,112,112h46.72l36.32-96.864c8.032-21.44,30.4-34.336,53.088-30.464
			C271.424,212.928,288,232.8,288,256v48c15.712,0,30.432,7.68,39.424,20.608l0.064,0.128c2.432,3.52,4.256,7.328,5.632,11.296H416
			c52.928,0,96-43.072,96-96C512,187.104,468.928,144,416,144z"/>
	</g>
</g>
<g>
</g>
<g>
</g>
<g>
</g>
<g>
</g>
<g>
</g>
<g>
</g>
<g>
</g>
<g>
</g>
<g>
</g>
<g>
</g>
<g>
</g>
<g>
</g>
<g>
</g>
<g>
</g>
<g>
</g>
</svg>
