<?xml version="1.0" encoding="iso-8859-1"?>
<!-- Generator: Adobe Illustrator 19.0.0, SVG Export Plug-In . SVG Version: 6.00 Build 0)  -->
<svg version="1.1" id="Capa_1" xmlns="http://www.w3.org/2000/svg" xmlns:xlink="http://www.w3.org/1999/xlink" x="0px" y="0px"
	 viewBox="0 0 512 512" style="enable-background:new 0 0 512 512;" xml:space="preserve">
<g>
	<g>
		<path d="M256,0.014c-140.97,0-256,115.05-256,256c0,6.61,4.327,12.441,10.653,14.356c6.327,1.914,13.161-0.536,16.828-6.036
			c10.616-15.924,28.567-25.432,48.019-25.432s37.403,9.507,48.019,25.432c2.782,4.173,7.466,6.68,12.481,6.68
			s9.699-2.506,12.481-6.68c10.774-16.162,28.095-25.432,47.519-25.432c17.981,0,34.148,7.956,45,21.957v73.734
			c-17.459,6.192-30,22.865-30,42.42v30c0,8.271-6.729,15-15,15s-15-6.729-15-15c0-24.813-20.187-45-45-45s-45,20.187-45,45
			c0,57.825,46.873,104.974,105.176,104.973C257.846,511.982,301,460.275,301,403.462v-26.448c0-19.555-12.541-36.228-30-42.42
			V260.86c10.852-14.001,27.019-21.957,45-21.957c19.424,0,36.745,9.27,47.519,25.432c2.782,4.173,7.466,6.68,12.481,6.68
			c5.015,0,9.699-2.506,12.481-6.68c10.616-15.924,28.567-25.432,48.019-25.432s37.403,9.507,48.019,25.432
			c2.834,4.251,7.56,6.681,12.482,6.681c1.446,0,2.909-0.209,4.346-0.645c6.327-1.916,10.653-7.747,10.653-14.356
			C512,115.044,396.95,0.014,256,0.014z M121.425,221.747c-13.575-8.273-29.395-12.845-45.925-12.845
			c-15.192,0-29.797,3.846-42.6,10.891c13.108-81.008,69.435-147.724,144.475-175.662
			C140.136,91.491,124.037,161.594,121.425,221.747z M196,208.902c-15.943,0-31.25,4.341-44.507,12.223
			c4.684-95.467,42.614-174.68,89.507-188.844v189.146C227.63,213.356,212.141,208.902,196,208.902z M271,403.462
			c0,41.893-30.919,78.624-75,78.531c-40.995-0.087-75-33.164-75-74.979c0-8.271,6.729-15,15-15s15,6.729,15,15
			c0,24.813,20.187,45,45,45s45-20.187,45-45v-30c0-8.271,6.729-15,15-15s15,6.729,15,15V403.462z M316,208.902
			c-16.141,0-31.63,4.454-45,12.524V32.281c46.893,14.164,84.823,93.377,89.507,188.845C347.25,213.243,331.943,208.902,316,208.902
			z M436.5,208.902c-16.53,0-32.35,4.571-45.925,12.845c-2.624-60.434-18.822-130.398-55.95-177.616
			c75.04,27.938,131.367,94.654,144.475,175.662C466.297,212.748,451.692,208.902,436.5,208.902z"/>
	</g>
</g>
<g>
</g>
<g>
</g>
<g>
</g>
<g>
</g>
<g>
</g>
<g>
</g>
<g>
</g>
<g>
</g>
<g>
</g>
<g>
</g>
<g>
</g>
<g>
</g>
<g>
</g>
<g>
</g>
<g>
</g>
</svg>
